# xmcd
#
# Track frame offsets:
#	150
#	12640
#	26040
#	35205
#	49072
#	61917
#	76662
#	84990
#	97665
#	110212
#	124072
#	133805
#	144820
#	157212
#
# Disc length: 2256 seconds
#
# Revision: 1
# Processed by: cddbd v1.5.1PL0 Copyright (c) Steve Scherf et al.
# Submitted via: EasyCDDAExtractor 5.0.7
#
DISCID=b908ce0e
DTITLE=Various Artist - Marieke und ihre Klabauter Im Schnee
DYEAR=1900
DGENRE=
TTITLE0=Im Schnee - H. Hufnagel B. Hufnagel
TTITLE1=Das Pfefferkuchenhaus -  H. Hufnagel B. Hufnagel
TTITLE2=Bloots een Peer - H. Hufnagel B. Hufnagel
TTITLE3=Der Wichtelmarsch - H. Hufnagel B. Hufnagel
TTITLE4=Mein Adventskalender - H. Hufnagel B. Hufnagel
TTITLE5=Schneekönigin - H. Hufnagel B. Hufnagel
TTITLE6=Schneeflöckchen, Weißröckchen - H. Hufnagel B. Hufnagel
TTITLE7=Frau Holle - H. Hufnagel B. Hufnagel
TTITLE8=Wiehnacht ohne lütte Kinner - H. Hufnagel B. Hufnagel
TTITLE9=Lebkuchen, Pfeffernuß und Spekulatius - H. Hufnagel B. Hufnagel
TTITLE10=Es ist für uns eine Zeit angekommen - H. Hufnagel B. Hufnagel
TTITLE11=Kling, Glöckchen - H. Hufnagel B. Hufnagel
TTITLE12=Luunern op Wiehnacht - H. Hufnagel B. Hufnagel
TTITLE13=Alle Kinder dieser Erde - H. Hufnagel B. Hufnagel
EXTD=
EXTT0=
EXTT1=
EXTT2=
EXTT3=
EXTT4=
EXTT5=
EXTT6=
EXTT7=
EXTT8=
EXTT9=
EXTT10=
EXTT11=
EXTT12=
EXTT13=
PLAYORDER=
